<svg width="19" height="19" viewBox="0 0 19 19" fill="none" xmlns="http://www.w3.org/2000/svg">
<path d="M18.016 0.48092V17.5849H12.992V15.9849C12.3711 16.6867 11.5996 17.239 10.7351 17.6006C9.87066 17.9622 8.93565 18.1236 7.99999 18.0729C3.616 18.0729 0 14.1369 0 9.04091C0 3.94492 3.616 0.00892035 7.99999 0.00892035C8.93558 -0.0412221 9.87041 0.120505 10.7348 0.482042C11.5991 0.843578 12.3707 1.39559 12.992 2.09692V0.49692L18.016 0.48092ZM12.992 9.03291C13.0354 8.48921 12.963 7.94249 12.7796 7.42883C12.5962 6.91518 12.3058 6.44628 11.9278 6.05312C11.5497 5.65996 11.0926 5.35147 10.5865 5.14802C10.0804 4.94458 9.53698 4.85081 8.99199 4.87292C8.44701 4.85081 7.90354 4.94458 7.39747 5.14802C6.8914 5.35147 6.43425 5.65996 6.05621 6.05312C5.67817 6.44628 5.38783 6.91518 5.20439 7.42883C5.02094 7.94249 4.94855 8.48921 4.992 9.03291C4.94876 9.57732 5.02118 10.1247 5.20449 10.6391C5.38781 11.1536 5.67787 11.6234 6.05564 12.0178C6.4334 12.4122 6.89032 12.7222 7.39639 12.9275C7.90246 13.1328 8.44623 13.2287 8.99199 13.2089C11.312 13.1769 12.992 11.5769 12.992 9.03291Z" fill="#2027D2"/>
<path d="M9.00799 11.1368C9.42573 11.1448 9.83638 11.0281 10.1876 10.8018C10.5388 10.5755 10.8147 10.2498 10.9801 9.86609C11.1455 9.4824 11.1929 9.05815 11.1163 8.64742C11.0397 8.23668 10.8425 7.85806 10.5499 7.55979C10.2574 7.26153 9.88258 7.05713 9.47339 6.97265C9.0642 6.88818 8.63912 6.92744 8.25233 7.08544C7.86554 7.24345 7.53455 7.51304 7.30154 7.85985C7.06854 8.20666 6.94406 8.615 6.94399 9.03282C6.94082 9.30664 6.99175 9.57839 7.09386 9.83248C7.19597 10.0866 7.34725 10.318 7.53902 10.5135C7.73079 10.709 7.95926 10.8647 8.21135 10.9716C8.46343 11.0786 8.73415 11.1347 9.00799 11.1368V11.1368Z" fill="#62E1FC"/>
</svg>
